<svg width="500" height="500" viewBox="0 0 500 500" fill="#000000" xmlns="http://www.w3.org/2000/svg">
    <path d="M499.13 113.81L467.88 44.8C466.299 41.307 462.82 39.0625 458.985 39.0625C455.15 39.0625 451.67 41.3065 450.089 44.8L418.839 113.81C418.266 115.076 417.969 116.449 417.969 117.839V232.097C417.969 237.49 422.341 241.862 427.735 241.862C433.128 241.862 437.5 237.49 437.5 232.096V127.604H480.469V427.734H437.5V311.848C437.5 306.455 433.128 302.083 427.735 302.083C422.341 302.083 417.969 306.455 417.969 311.848V458.984C417.969 481.6 436.369 499.999 458.985 499.999C481.601 499.999 500 481.6 500 458.984V117.839C500 116.449 499.703 115.075 499.13 113.81ZM458.985 72.502L475.092 108.073H442.877L458.985 72.502ZM458.985 480.469C447.138 480.469 437.5 470.831 437.5 458.984V447.265H480.469V458.984C480.469 470.831 470.831 480.469 458.985 480.469Z" fill="#FFFFFF"/>
    <path d="M427.735 283.203C430.303 283.203 432.823 282.158 434.639 280.341C436.456 278.525 437.501 276.006 437.501 273.437C437.501 270.869 436.456 268.349 434.639 266.533C432.823 264.716 430.303 263.671 427.735 263.671C425.166 263.671 422.646 264.716 420.83 266.533C419.013 268.349 417.969 270.869 417.969 273.437C417.969 276.006 419.013 278.525 420.83 280.341C422.646 282.158 425.166 283.203 427.735 283.203Z" fill="#FFFFFF"/>
    <path d="M141.114 402.344C138.545 402.344 136.026 403.389 134.209 405.205C132.393 407.022 131.348 409.541 131.348 412.11C131.348 414.678 132.393 417.198 134.209 419.014C136.026 420.831 138.545 421.876 141.114 421.876C143.682 421.876 146.202 420.831 148.018 419.014C149.844 417.198 150.88 414.678 150.88 412.11C150.88 409.541 149.845 407.022 148.018 405.205C146.201 403.388 143.682 402.344 141.114 402.344Z" fill="#FFFFFF"/>
    <path d="M330.078 0H9.7655C4.372 0 0 4.372 0 9.7655V490.234C0 495.628 4.372 500 9.7655 500H330.078C357.002 500 378.906 478.095 378.906 451.172V48.828C378.907 21.9045 357.002 0 330.078 0ZM359.375 451.172C359.375 467.326 346.233 480.469 330.078 480.469H19.5315V19.5315H330.079C346.233 19.5315 359.376 32.674 359.376 48.8285V451.172H359.375Z" fill="#FFFFFF"/>
</svg>
